<?xml version="1.0" standalone="yes"?><svg xmlns="http://www.w3.org/2000/svg" version="1.1" width="528" height="528" viewBox="0 0 528 528" shape-rendering="crispEdges"><rect x="0" y="0" width="528" height="528" fill="#fff"/><path fill="#000" d="M64 64h16v16H64V64M80 64h16v16H80V64M96 64h16v16H96V64M112 64h16v16H112V64M128 64h16v16H128V64M144 64h16v16H144V64M160 64h16v16H160V64M208 64h16v16H208V64M224 64h16v16H224V64M240 64h16v16H240V64M256 64h16v16H256V64M272 64h16v16H272V64M352 64h16v16H352V64M368 64h16v16H368V64M384 64h16v16H384V64M400 64h16v16H400V64M416 64h16v16H416V64M432 64h16v16H432V64M448 64h16v16H448V64M64 80h16v16H64V80M160 80h16v16H160V80M240 80h16v16H240V80M256 80h16v16H256V80M304 80h16v16H304V80M320 80h16v16H320V80M352 80h16v16H352V80M448 80h16v16H448V80M64 96h16v16H64V96M96 96h16v16H96V96M112 96h16v16H112V96M128 96h16v16H128V96M160 96h16v16H160V96M192 96h16v16H192V96M256 96h16v16H256V96M288 96h16v16H288V96M304 96h16v16H304V96M352 96h16v16H352V96M384 96h16v16H384V96M400 96h16v16H400V96M416 96h16v16H416V96M448 96h16v16H448V96M64 112h16v16H64V112M96 112h16v16H96V112M112 112h16v16H112V112M128 112h16v16H128V112M160 112h16v16H160V112M192 112h16v16H192V112M208 112h16v16H208V112M256 112h16v16H256V112M272 112h16v16H272V112M304 112h16v16H304V112M352 112h16v16H352V112M384 112h16v16H384V112M400 112h16v16H400V112M416 112h16v16H416V112M448 112h16v16H448V112M64 128h16v16H64V128M96 128h16v16H96V128M112 128h16v16H112V128M128 128h16v16H128V128M160 128h16v16H160V128M208 128h16v16H208V128M224 128h16v16H224V128M272 128h16v16H272V128M304 128h16v16H304V128M320 128h16v16H320V128M352 128h16v16H352V128M384 128h16v16H384V128M400 128h16v16H400V128M416 128h16v16H416V128M448 128h16v16H448V128M64 144h16v16H64V144M160 144h16v16H160V144M224 144h16v16H224V144M240 144h16v16H240V144M256 144h16v16H256V144M288 144h16v16H288V144M304 144h16v16H304V144M352 144h16v16H352V144M448 144h16v16H448V144M64 160h16v16H64V160M80 160h16v16H80V160M96 160h16v16H96V160M112 160h16v16H112V160M128 160h16v16H128V160M144 160h16v16H144V160M160 160h16v16H160V160M192 160h16v16H192V160M224 160h16v16H224V160M256 160h16v16H256V160M288 160h16v16H288V160M320 160h16v16H320V160M352 160h16v16H352V160M368 160h16v16H368V160M384 160h16v16H384V160M400 160h16v16H400V160M416 160h16v16H416V160M432 160h16v16H432V160M448 160h16v16H448V160M224 176h16v16H224V176M256 176h16v16H256V176M272 176h16v16H272V176M112 192h16v16H112V192M128 192h16v16H128V192M160 192h16v16H160V192M176 192h16v16H176V192M240 192h16v16H240V192M256 192h16v16H256V192M304 192h16v16H304V192M400 192h16v16H400V192M416 192h16v16H416V192M80 208h16v16H80V208M96 208h16v16H96V208M144 208h16v16H144V208M192 208h16v16H192V208M208 208h16v16H208V208M224 208h16v16H224V208M272 208h16v16H272V208M304 208h16v16H304V208M320 208h16v16H320V208M368 208h16v16H368V208M384 208h16v16H384V208M400 208h16v16H400V208M64 224h16v16H64V224M80 224h16v16H80V224M112 224h16v16H112V224M144 224h16v16H144V224M160 224h16v16H160V224M176 224h16v16H176V224M192 224h16v16H192V224M224 224h16v16H224V224M240 224h16v16H240V224M304 224h16v16H304V224M336 224h16v16H336V224M352 224h16v16H352V224M384 224h16v16H384V224M400 224h16v16H400V224M448 224h16v16H448V224M64 240h16v16H64V240M112 240h16v16H112V240M128 240h16v16H128V240M144 240h16v16H144V240M192 240h16v16H192V240M208 240h16v16H208V240M224 240h16v16H224V240M256 240h16v16H256V240M288 240h16v16H288V240M304 240h16v16H304V240M352 240h16v16H352V240M400 240h16v16H400V240M416 240h16v16H416V240M112 256h16v16H112V256M160 256h16v16H160V256M192 256h16v16H192V256M224 256h16v16H224V256M256 256h16v16H256V256M304 256h16v16H304V256M320 256h16v16H320V256M336 256h16v16H336V256M352 256h16v16H352V256M64 272h16v16H64V272M80 272h16v16H80V272M96 272h16v16H96V272M112 272h16v16H112V272M144 272h16v16H144V272M192 272h16v16H192V272M256 272h16v16H256V272M272 272h16v16H272V272M384 272h16v16H384V272M400 272h16v16H400V272M64 288h16v16H64V288M80 288h16v16H80V288M112 288h16v16H112V288M128 288h16v16H128V288M160 288h16v16H160V288M176 288h16v16H176V288M192 288h16v16H192V288M224 288h16v16H224V288M256 288h16v16H256V288M272 288h16v16H272V288M288 288h16v16H288V288M304 288h16v16H304V288M336 288h16v16H336V288M384 288h16v16H384V288M400 288h16v16H400V288M416 288h16v16H416V288M432 288h16v16H432V288M448 288h16v16H448V288M64 304h16v16H64V304M96 304h16v16H96V304M112 304h16v16H112V304M128 304h16v16H128V304M144 304h16v16H144V304M176 304h16v16H176V304M288 304h16v16H288V304M304 304h16v16H304V304M368 304h16v16H368V304M400 304h16v16H400V304M416 304h16v16H416V304M64 320h16v16H64V320M96 320h16v16H96V320M128 320h16v16H128V320M144 320h16v16H144V320M160 320h16v16H160V320M176 320h16v16H176V320M304 320h16v16H304V320M320 320h16v16H320V320M336 320h16v16H336V320M352 320h16v16H352V320M368 320h16v16H368V320M384 320h16v16H384V320M400 320h16v16H400V320M416 320h16v16H416V320M448 320h16v16H448V320M192 336h16v16H192V336M208 336h16v16H208V336M272 336h16v16H272V336M288 336h16v16H288V336M320 336h16v16H320V336M384 336h16v16H384V336M400 336h16v16H400V336M416 336h16v16H416V336M64 352h16v16H64V352M80 352h16v16H80V352M96 352h16v16H96V352M112 352h16v16H112V352M128 352h16v16H128V352M144 352h16v16H144V352M160 352h16v16H160V352M192 352h16v16H192V352M208 352h16v16H208V352M240 352h16v16H240V352M256 352h16v16H256V352M288 352h16v16H288V352M320 352h16v16H320V352M352 352h16v16H352V352M384 352h16v16H384V352M416 352h16v16H416V352M448 352h16v16H448V352M64 368h16v16H64V368M160 368h16v16H160V368M224 368h16v16H224V368M240 368h16v16H240V368M256 368h16v16H256V368M288 368h16v16H288V368M304 368h16v16H304V368M320 368h16v16H320V368M384 368h16v16H384V368M400 368h16v16H400V368M64 384h16v16H64V384M96 384h16v16H96V384M112 384h16v16H112V384M128 384h16v16H128V384M160 384h16v16H160V384M192 384h16v16H192V384M224 384h16v16H224V384M256 384h16v16H256V384M304 384h16v16H304V384M320 384h16v16H320V384M336 384h16v16H336V384M352 384h16v16H352V384M368 384h16v16H368V384M384 384h16v16H384V384M432 384h16v16H432V384M64 400h16v16H64V400M96 400h16v16H96V400M112 400h16v16H112V400M128 400h16v16H128V400M160 400h16v16H160V400M192 400h16v16H192V400M240 400h16v16H240V400M288 400h16v16H288V400M336 400h16v16H336V400M352 400h16v16H352V400M400 400h16v16H400V400M416 400h16v16H416V400M448 400h16v16H448V400M64 416h16v16H64V416M96 416h16v16H96V416M112 416h16v16H112V416M128 416h16v16H128V416M160 416h16v16H160V416M208 416h16v16H208V416M240 416h16v16H240V416M256 416h16v16H256V416M288 416h16v16H288V416M304 416h16v16H304V416M336 416h16v16H336V416M368 416h16v16H368V416M384 416h16v16H384V416M432 416h16v16H432V416M448 416h16v16H448V416M64 432h16v16H64V432M160 432h16v16H160V432M208 432h16v16H208V432M224 432h16v16H224V432M256 432h16v16H256V432M288 432h16v16H288V432M304 432h16v16H304V432M384 432h16v16H384V432M400 432h16v16H400V432M416 432h16v16H416V432M432 432h16v16H432V432M448 432h16v16H448V432M64 448h16v16H64V448M80 448h16v16H80V448M96 448h16v16H96V448M112 448h16v16H112V448M128 448h16v16H128V448M144 448h16v16H144V448M160 448h16v16H160V448M224 448h16v16H224V448M240 448h16v16H240V448M256 448h16v16H256V448M320 448h16v16H320V448M368 448h16v16H368V448M384 448h16v16H384V448M448 448h16v16H448V448"/><rect x="39%" y="39%" width="23%" height="23%" fill="white"/>
<text x="50%" y="50%"
                     dominant-baseline="middle"
                     text-anchor="middle"
                     font-size="37"
                     font-family="Arial"
                     fill="black">VOLT</text>
</svg>